<svg width="60" height="60" viewBox="0 0 60 60" fill="none" xmlns="http://www.w3.org/2000/svg">
<path fill-rule="evenodd" clip-rule="evenodd" d="M6.95495 29.7158L47.0115 55.5531L47.0136 55.5544C47.4011 55.7996 47.7363 55.9108 48.0545 55.8553C48.4075 55.7936 48.7134 55.5605 49.0221 55.2635C49.4888 54.8145 50.2271 54.8345 50.6697 55.308C51.1123 55.7815 51.0926 56.5306 50.6259 56.9795C49.9482 57.6314 49.2244 58.0507 48.4498 58.1859C47.6421 58.3269 46.7552 58.1808 45.7697 57.5544L45.763 57.5501L5.69775 31.7071C5.69369 31.7045 5.68967 31.7019 5.68569 31.6992L5.68511 31.6988C4.71166 31.0535 4.20945 30.2979 3.99725 29.4948C3.79363 28.7245 3.86552 27.882 4.16492 26.9847C4.37109 26.3666 5.03321 26.0346 5.64244 26.2439C6.25179 26.4531 6.57891 27.1248 6.37262 27.7429C6.23626 28.1518 6.15578 28.5313 6.24855 28.8822C6.33215 29.1989 6.57253 29.4613 6.95495 29.7158ZM47.6595 2.2813C50.5911 3.61341 51.9051 7.10965 50.5921 10.084C49.2791 13.0582 45.8331 14.3915 42.9016 13.0594C39.97 11.7273 38.656 8.23094 39.969 5.25671C41.2819 2.28247 44.728 0.949178 47.6595 2.2813ZM29.6128 22.6847L32.467 16.2189C32.5893 15.942 32.6183 15.6319 32.5496 15.3365C32.481 15.0411 32.3185 14.7769 32.0872 14.5845L25.9077 9.44588C24.6739 8.42106 24.2224 7.55271 24.7338 6.37612L24.7738 6.284C25.2851 5.1073 26.38 4.22506 27.7996 5.09282C27.7996 5.09282 33.6357 9.41706 35.2208 10.6999C35.4891 10.917 35.7834 11.0989 36.0966 11.2413C37.9974 12.1049 44.9722 15.6273 47.2844 16.678C47.7691 16.8982 48.2131 17.201 48.5971 17.5733L54.9409 23.7222C55.878 24.6518 56.6045 25.6352 56.0796 26.8056L56.0386 26.8974C55.5138 28.0679 54.109 28.964 52.9994 28.0527L46.5339 21.6499C46.4928 21.6091 46.4426 21.579 46.3876 21.5622C46.3326 21.5453 46.2745 21.5422 46.218 21.5531C46.1616 21.564 46.1086 21.5886 46.0635 21.6248C46.0185 21.6609 45.9827 21.7076 45.9593 21.7608L42.2312 30.2062L48.2076 38.5911C48.547 39.0672 48.7179 39.6456 48.6927 40.2326C48.6675 40.8196 48.4477 41.3808 48.0688 41.8252L42.9907 47.7807C42.5849 48.2564 42.0095 48.5491 41.3911 48.5944C40.7726 48.6398 40.1617 48.434 39.6928 48.0225C38.7163 47.1653 38.6095 45.6673 39.4544 44.6766L42.4053 41.2161C42.5024 41.1022 42.5588 40.9584 42.5653 40.808C42.5717 40.6576 42.5279 40.5093 42.4409 40.3873L40.0798 37.0747C36.1988 31.6604 30.8192 29.4879 26.7682 28.0301L21.9333 27.0885C21.7876 27.0601 21.6366 27.0824 21.505 27.152C21.3734 27.2215 21.2688 27.3341 21.2081 27.4715L19.3645 31.6476C18.8367 32.8433 17.4536 33.3784 16.2751 32.8429C15.7092 32.5858 15.2671 32.111 15.0462 31.5232C14.8252 30.9354 14.8434 30.2826 15.0969 29.7084C16.0166 27.6248 17.394 24.5055 18.27 22.5216C18.5067 21.9854 18.915 21.546 19.4287 21.2747C19.9424 21.0034 20.5313 20.916 21.1 21.0268L29.6128 22.6847Z" fill="#0044F0"/>
</svg>
